HIERARCHY
ROOT Hips
{
	OFFSET -0.179506 -22.333345 2.821913
	CHANNELS 6 Xposition Yposition Zposition Zrotation Yrotation Xrotation 
	JOINT LeftUpLeg
	{
		OFFSET 6.951974 -9.140623 -0.681533
		CHANNELS 3 Zrotation Yrotation Xrotation
		JOINT LeftLeg
		{
			OFFSET 3.427654 -37.519855 -0.449580
			CHANNELS 3 Zrotation Yrotation Xrotation
			JOINT LeftFoot
			{
				OFFSET -1.359570 -39.796059 -4.369333
				CHANNELS 3 Zrotation Yrotation Xrotation
				JOINT LeftToe
				{
					OFFSET 2.635814 -5.579078 11.928840
					CHANNELS 3 Zrotation Yrotation Xrotation
					End Site
					{
						OFFSET 0.000000 0.000000 0.000000
					}
				}
			}
		}
	}
	JOINT RightUpLeg
	{
		OFFSET -6.767048 -9.052170 -0.431982
		CHANNELS 3 Zrotation Yrotation Xrotation
		JOINT RightLeg
		{
			OFFSET -3.829005 -38.256897 -0.885003
			CHANNELS 3 Zrotation Yrotation Xrotation
			JOINT RightFoot
			{
				OFFSET 1.577377 -39.841461 -4.231180
				CHANNELS 3 Zrotation Yrotation Xrotation
				JOINT RightToe
				{
					OFFSET -2.537174 -4.814398 12.334795
					CHANNELS 3 Zrotation Yrotation Xrotation
					End Site
					{
						OFFSET 0.000000 0.000000 0.000000
					}
				}
			}
		}
	}
	JOINT Spine
	{
		OFFSET -0.253288 10.896323 -2.669631
		CHANNELS 3 Zrotation Yrotation Xrotation
		JOINT Spine1
		{
			OFFSET 0.548704 13.518043 0.109247
			CHANNELS 3 Zrotation Yrotation Xrotation
			JOINT Spine2
			{
				OFFSET 0.145701 5.292222 2.542457
				CHANNELS 3 Zrotation Yrotation Xrotation
				JOINT Neck
				{
					OFFSET -0.277840 21.387037 -4.285703
					CHANNELS 3 Zrotation Yrotation Xrotation
					JOINT Head
					{
						OFFSET 0.515184 6.496960 5.134897
						CHANNELS 3 Zrotation Yrotation Xrotation
						End Site
						{
							OFFSET 0.000000 0.000000 0.000000
						}
					}
				}
				JOINT LeftShoulder
				{
					OFFSET 7.884473 12.174932 -3.408961
					CHANNELS 3 Zrotation Yrotation Xrotation
					JOINT LeftArm
					{
						OFFSET 9.097692 3.046888 -0.886815
						CHANNELS 3 Zrotation Yrotation Xrotation
						JOINT LeftForeArm
						{
							OFFSET 25.961220 -1.277207 -2.745643
							CHANNELS 3 Zrotation Yrotation Xrotation
							JOINT LeftHand
							{
								OFFSET 24.923361 0.898606 -0.117091
								CHANNELS 3 Zrotation Yrotation Xrotation
								End Site
								{
									OFFSET 0.000000 0.000000 0.000000
								}
							}
						}
					}
				}
				JOINT RightShoulder
				{
					OFFSET -8.175920 11.883285 -3.861528
					CHANNELS 3 Zrotation Yrotation Xrotation
					JOINT RightArm
					{
						OFFSET -9.601238 3.255117 -0.914307
						CHANNELS 3 Zrotation Yrotation Xrotation
						JOINT RightForeArm
						{
							OFFSET -25.374195 -1.332924 -2.140099
							CHANNELS 3 Zrotation Yrotation Xrotation
							JOINT RightHand
							{
								OFFSET -25.529810 0.777228 -0.555919
								CHANNELS 3 Zrotation Yrotation Xrotation
								End Site
								{
									OFFSET 0.000000 0.000000 0.000000
								}
							}
						}
					}
				}
			}
		}
	}
}
MOTION
Frames: 12
Frame Time: 0.033333
16.120180 9.444699 92.033546 103.686350 -0.909103 86.708363 18.736902 14.661872 -11.868834 -1.884522 13.021124 22.099936 -8.237077 0.279693 -6.690705 nan nan nan -17.377405 -9.243796 -2.664004 -1.328439 -7.422652 25.097963 2.371449 2.790962 -23.068578 nan nan nan 3.121038 -4.983214 17.280325 -3.979453 -3.256664 -10.553302 -1.722784 8.287446 0.902961 -3.100885 24.958280 15.410316 -0.697971 34.248683 15.721814 -17.795757 -2.035016 1.286390 -42.341628 -5.700224 -12.293092 90.756202 -51.987711 -70.964757 22.025899 -29.423473 -35.972546 15.822432 17.593606 8.775277 67.845863 25.008701 23.094320 150.964239 75.942409 177.631965 12.120693 27.676739 -31.221217 
16.136898 9.400458 92.024445 103.660137 -0.942780 86.558411 18.789040 14.620346 -11.617855 -1.863121 13.099812 22.035269 -8.383766 0.114699 -6.662163 nan nan nan -17.393913 -9.120639 -2.534797 -1.392977 -7.543992 25.172263 2.365406 2.840441 -23.195362 nan nan nan 3.087128 -4.903003 17.173214 -3.903721 -3.255964 -10.002702 -1.764553 8.274582 0.681028 -3.007975 25.076386 15.615969 -1.016816 34.043891 15.353851 -17.933639 -2.182314 1.297411 -42.218489 -5.603738 -12.260579 90.880071 -51.992761 -71.022927 21.282612 -29.393037 -34.849162 15.875715 17.614678 8.781216 67.843048 25.014189 22.986980 151.296869 75.915245 178.254958 12.426217 27.337249 -30.536422 
16.166201 9.370162 92.032028 103.703041 -0.998419 86.666823 18.700199 14.564546 -11.676117 -1.816147 13.104258 21.927495 -8.349338 0.076898 -6.632848 nan nan nan -17.382939 -9.055238 -2.646821 -1.469405 -7.657524 25.247175 2.445459 2.852061 -23.239200 nan nan nan 3.044775 -4.888568 17.185962 -3.847467 -3.247624 -10.239825 -1.754325 8.243166 0.655908 -2.885587 25.117024 15.728833 -1.110524 33.962092 15.308330 -17.975285 -2.022438 1.383683 -42.188191 -5.539771 -12.366916 91.030025 -52.203917 -70.917651 20.311913 -29.458191 -34.010852 15.994964 17.369054 8.872109 68.012578 24.902873 23.016912 150.988461 75.823373 178.394259 12.605417 27.161975 -29.730495 
16.040693 9.247467 91.845291 103.398061 -1.517693 84.971133 18.832753 13.932886 -9.656741 -1.983264 13.422416 21.565007 -8.487834 0.177544 -6.675346 nan nan nan -18.348852 -8.272608 -1.266292 -1.452573 -7.950372 25.654217 1.809588 3.163702 -23.671660 nan nan nan 3.796916 -7.880113 17.339960 -5.499005 -5.358120 -4.906384 -4.309680 11.550671 -1.916367 -1.830543 27.878963 12.187888 -0.663635 32.167438 16.627342 -15.240589 -2.041237 -1.543712 -42.018381 -4.302920 -11.951779 90.417992 -51.686288 -71.181103 20.688757 -29.501690 -34.236317 16.547778 20.032152 8.249939 69.149262 26.212443 24.290721 155.679400 77.468116 -177.400929 11.872913 27.048525 -28.807263 
16.081053 9.221275 91.814346 103.353530 -1.726540 84.923053 18.644936 13.716479 -9.448003 -2.090302 13.331185 21.203851 -8.529021 0.600697 -6.491083 nan nan nan -18.589520 -8.149660 -1.306378 -1.432521 -7.939517 25.708531 1.732625 3.079275 -23.644834 nan nan nan 4.122559 -9.039284 17.229634 -6.011992 -6.037489 -5.111185 -5.004142 12.731806 -1.707619 -1.591469 28.475772 11.339198 -0.237540 32.038546 17.208201 -14.513335 -1.754640 -2.236311 -41.979428 -3.850528 -11.786119 90.319648 -51.701450 -71.056926 21.253328 -29.356852 -34.650719 16.869041 20.718887 8.394639 69.668714 26.581464 24.769321 156.389059 78.027028 -176.848759 11.277896 27.099623 -28.934733 
16.160570 9.203170 91.862045 103.276349 -1.923020 85.467190 18.293417 13.808289 -9.866786 -2.165874 13.171597 21.005792 -8.307350 0.914820 -6.438994 nan nan nan -18.647427 -8.246670 -1.958934 -1.439299 -7.773553 25.807481 1.830012 2.896789 -23.546973 nan nan nan 4.337075 -10.011582 17.018955 -6.188431 -6.523074 -7.369555 -5.238518 13.756062 -0.482438 -1.584978 28.560566 11.426270 0.327549 32.589160 17.423157 -14.308364 -1.197855 -2.431762 -41.600578 -3.366897 -11.855591 90.210859 -52.007460 -70.979180 21.479381 -29.354540 -34.903441 17.489569 21.064494 9.133742 69.981368 26.822331 25.020500 155.209435 78.369591 -178.286478 10.883180 27.235243 -29.049677 
16.245516 9.199181 91.934624 103.193007 -2.046278 86.006870 18.025473 13.957532 -10.289199 -2.149300 13.171870 20.961248 -8.142378 0.994388 -6.451164 nan nan nan -18.646278 -8.320593 -2.552004 -1.428336 -7.661724 25.871040 1.990075 2.828147 -23.452063 nan nan nan 4.423592 -10.433615 16.745758 -6.122829 -6.679037 -9.252382 -5.216385 14.232959 0.481638 -1.637689 28.393030 12.035277 0.602354 33.163180 17.173043 -14.468784 -0.778682 -2.267390 -41.268684 -3.103405 -11.889585 90.202454 -52.236538 -71.180699 21.657387 -29.414179 -35.029761 18.039519 21.067930 9.859744 70.041849 26.770340 25.134431 154.009645 78.397133 -179.738607 10.849372 27.573211 -29.372938 
16.272320 9.175127 91.927940 103.224040 -2.033814 85.995161 18.058420 13.991892 -10.277381 -2.128493 13.193646 20.968508 -8.180521 0.925717 -6.404880 nan nan nan -18.633294 -8.329525 -2.524141 -1.422820 -7.687591 25.879379 1.994533 2.870102 -23.445212 nan nan nan 4.410272 -10.320508 16.754822 -6.058811 -6.616359 -9.232931 -5.142075 14.109943 0.460984 -1.628098 28.312313 12.124773 0.584184 33.146074 17.108866 -14.533496 -0.822688 -2.174979 -41.350631 -3.169994 -11.834643 90.210897 -52.227019 -71.218298 21.813477 -29.406559 -35.062561 18.024965 20.968597 9.820185 70.010261 26.614949 25.100930 153.890957 78.316602 -179.912996 10.860554 27.692588 -29.572086 
16.218742 9.159236 91.891800 103.590069 -1.723271 85.307225 18.536331 13.973168 -9.911848 -2.002666 13.256793 21.315868 -8.404910 0.381516 -6.436053 nan nan nan -18.499038 -8.338429 -1.691625 -1.390350 -7.957697 25.954567 1.928935 3.008082 -23.584067 nan nan nan 4.228752 -9.186184 17.154325 -5.712159 -6.085629 -7.161901 -4.748971 12.861641 -0.527122 -1.573551 27.959585 11.902481 0.130200 32.475901 17.014736 -14.752499 -1.481975 -1.821014 -42.347293 -3.959533 -11.628136 90.463789 -51.867945 -71.007533 21.717341 -29.432642 -34.794856 17.297308 20.363614 8.837683 69.801674 25.853183 24.678429 155.489740 77.794645 -177.930379 11.970373 27.851485 -29.777652 
16.222328 9.145327 91.871941 103.615925 -1.716967 85.267951 18.569148 13.946283 -9.892834 -1.998691 13.274577 21.320775 -8.396463 0.341672 -6.448837 nan nan nan -18.486812 -8.319290 -1.651343 -1.382790 -7.987180 25.977617 1.907373 2.994272 -23.617442 nan nan nan 4.217580 -9.057522 17.131413 -5.670400 -6.001486 -6.868965 -4.704366 12.692481 -0.681885 -1.575809 27.940305 11.856562 0.063343 32.414773 17.050906 -14.807207 -1.534676 -1.781375 -42.411377 -4.041236 -11.606262 90.490886 -51.826905 -70.990502 21.669131 -29.449233 -34.733225 17.191367 20.299163 8.752346 69.827394 25.819911 24.666075 155.743093 77.801480 -177.686445 12.049186 27.889495 -29.905248 
16.227512 9.105102 91.850975 103.727968 -1.646264 85.180660 18.686758 13.834251 -9.893587 -1.976598 13.327052 21.404029 -8.352443 0.160763 -6.560931 nan nan nan -18.412497 -8.191402 -1.531172 -1.351918 -8.149801 26.017916 1.783342 2.849374 -23.854959 nan nan nan 4.177806 -8.665088 16.980048 -5.549463 -5.709876 -5.834794 -4.607415 12.142454 -1.316829 -1.589476 27.798716 11.689307 -0.121974 32.210657 17.214956 -15.073652 -1.719161 -1.589816 -42.600584 -4.352553 -11.553999 90.622440 -51.610181 -70.922199 21.328978 -29.574316 -34.417978 16.901653 20.128621 8.640717 69.890383 25.691008 24.504370 157.793433 77.949223 -175.918476 12.426326 28.365210 -31.053374 
16.278593 9.068536 91.815750 103.719671 -1.644364 85.364067 18.677943 13.714026 -9.976349 -1.966444 13.483807 21.188862 -8.350509 0.200943 -6.287862 nan nan nan -18.364436 -8.073963 -1.722712 -1.364347 -8.238156 25.975304 1.669387 2.777274 -23.910530 nan nan nan 4.250191 -8.603214 16.597076 -5.507606 -5.578902 -5.658243 -4.540213 11.985006 -1.319978 -1.714283 27.724940 11.743471 -0.265540 32.252004 17.166526 -15.148681 -1.655275 -1.464917 -42.862933 -4.580441 -11.601035 90.721492 -51.452588 -70.776626 21.012073 -29.633324 -34.157923 16.640305 20.037959 8.772707 70.104035 25.861594 24.459385 158.173189 78.070381 -175.353878 12.681891 28.608268 -31.230447 
